<?xml version="1.0" encoding="UTF-8" standalone="no"?>
<!-- Generator: Adobe Illustrator 16.0.3, SVG Export Plug-In . SVG Version: 6.00 Build 0)  -->

<svg
   xmlns:dc="http://purl.org/dc/elements/1.1/"
   xmlns:cc="http://creativecommons.org/ns#"
   xmlns:rdf="http://www.w3.org/1999/02/22-rdf-syntax-ns#"
   xmlns:svg="http://www.w3.org/2000/svg"
   xmlns="http://www.w3.org/2000/svg"
   xmlns:sodipodi="http://sodipodi.sourceforge.net/DTD/sodipodi-0.dtd"
   xmlns:inkscape="http://www.inkscape.org/namespaces/inkscape"
   version="1.1"
   id="Layer_1"
   x="0px"
   y="0px"
   width="595.28px"
   height="841.89px"
   viewBox="0 0 595.28 841.89"
   enable-background="new 0 0 595.28 841.89"
   xml:space="preserve"
   inkscape:version="0.48.4 r9939"
   sodipodi:docname="CDRlogo.svg"><metadata
     id="metadata51"><rdf:RDF><cc:Work
         rdf:about=""><dc:format>image/svg+xml</dc:format><dc:type
           rdf:resource="http://purl.org/dc/dcmitype/StillImage" /></cc:Work></rdf:RDF></metadata><defs
     id="defs49" /><sodipodi:namedview
     pagecolor="#ffffff"
     bordercolor="#666666"
     borderopacity="1"
     objecttolerance="10"
     gridtolerance="10"
     guidetolerance="10"
     inkscape:pageopacity="0"
     inkscape:pageshadow="2"
     inkscape:window-width="1920"
     inkscape:window-height="968"
     id="namedview47"
     showgrid="false"
     showguides="true"
     inkscape:guide-bbox="true"
     inkscape:zoom="3.1714775"
     inkscape:cx="241.83006"
     inkscape:cy="496.61952"
     inkscape:window-x="0"
     inkscape:window-y="25"
     inkscape:window-maximized="1"
     inkscape:current-layer="g5"><sodipodi:guide
       orientation="1,0"
       position="181.93386,451.26732"
       id="guide3028" /><sodipodi:guide
       orientation="0,1"
       position="346.9229,566.31373"
       id="guide3030" /></sodipodi:namedview><g
     id="g3"><g
       id="g5"><path
         fill-rule="evenodd"
         clip-rule="evenodd"
         d="M563.657,510.292c-3.035-9.392-7.917-17.827-12.967-26.182    c-0.933-1.546-1.012-2.789-0.225-4.408c2.519-5.202,4.897-10.472,7.312-15.712c4.925-10.717,9.092-21.684,11.155-33.346    c3.38-19.135,4.104-38.494,3.987-57.828c-0.254-43.291-0.896-86.584-1.828-129.872c-0.214-9.998-0.956-20.333-3.688-29.866    c-9.852-34.242-28.903-62.766-56.299-85.651c-17.049-14.244-36.511-24.158-57.204-31.799c-5.949-2.192-12.102-4.751-18.297-5.201    c-18.99-1.377-38.041-2.238-57.069-2.52c-28.633-0.419-57.271-0.174-85.902-0.213c-1.177-0.003-2.353,0-2.867,0    c-1.299-6.636-1.695-12.936-3.808-18.602c-4.875-13.088-13.757-23.493-24.382-32.363c-8.796-7.35-18.339-13.744-29.87-15.588    c-12.444-1.991-25.068-1.828-37.556,0.017c-8.774,1.293-16.253,5.938-23.446,10.786c-13.881,9.356-24.188,21.739-29.218,37.837    c-2.303,7.361-3.479,15.114-4.639,22.768c-0.492,3.23-1.505,5.161-4.567,6.416c-3.859,1.582-7.48,3.739-11.278,5.494    c-21.895,10.133-40.529,24.544-56.079,42.932c-19.46,23.028-33.425,48.916-38.384,78.865c-2.072,12.527-2.376,25.41-2.752,38.152    c-1.299,43.886-1.569,87.776-0.113,131.664c0.4,12.055,0.97,24.08,3.87,35.91c3.781,15.464,9.753,30.107,15.98,44.664    c0.782,1.829,0.706,3.245-0.135,5.005c-4.791,10.076-9.833,20.059-14.033,30.382c-2.443,6.006-4.456,12.521-4.959,18.944    c-1.561,19.984-2.413,40.042-0.743,60.076c0.599,7.192,2.058,14.255,7.467,19.71c6.984,7.047,15.345,10.875,25.358,11.011    c13.262,0.186,26.527,0.427,39.786,0.72c3.984,0.09,7.984,0.247,11.94,0.697c3.909,0.438,4.263,1.429,2.958,5.105    c-2.323,6.563-4.916,13.066-6.644,19.792c-2.764,10.758-2.097,21.823-1.327,32.761c0.661,9.402,0.914,19.131,3.563,28.055    c5.462,18.433,18.029,32.057,33.209,43.422c10.142,7.585,21.821,11.893,33.632,15.867c2.707,0.916,3.471,2.165,3.335,4.869    c-0.439,8.555,0.245,16.982,4.321,24.738c4.211,8.005,9.445,14.946,19.38,15.991c10.7,1.125,21.401,2.631,32.136,3.007    c24.522,0.862,49.062,1.419,73.6,1.56c31.927,0.19,63.844-0.091,95.758-0.26c17.782-0.102,27.183-10.881,31.029-24.353    c2.137-7.439,1.688-15.021,1.777-22.578c0.018-1.653,0-3.294,0-5.1c7.67,0,14.856,0.158,22.031-0.05    c6.765-0.192,13.585-0.311,20.266-1.282c16.044-2.353,25.023-10.562,28.526-25.688c2.035-8.771,0.146-17.296-2.94-25.483    c-3.769-9.959-8.234-19.658-11.854-29.662c-1.078-2.962-0.698-6.619-0.358-9.897c0.482-4.723,2.158-9.378,2.231-14.084    c0.174-11.057-0.298-22.128-0.501-33.188c-0.027-1.254-0.011-2.508-0.011-3.791c1.371,0,2.367-0.045,3.356,0.007    c11.264,0.563,22.525,0.962,33.767,1.748c14.373,1.012,25.716-4.375,34.138-15.822c5.043-6.859,6.158-15.139,6.393-23.304    c0.384-13.051,0.451-26.129-0.021-39.174C569.518,534.134,567.46,522.044,563.657,510.292z M236.556,777.782    c-0.284,2.885-2.193,5.039-5.103,5.601c-3.281,0.619-6.686,1.237-9.981,1.008c-4.574-0.322-7.615-3.072-8.813-7.667    c-1.566-5.998-1.434-12.031-0.418-18.071c0.164-0.99,0.798-1.9,1.379-3.223c2.783,2.57,2.845,5.646,3.258,8.497    c0.556,3.846,0.738,7.737,1.266,11.59c0.555,4.089,1.979,5.11,6.557,5.144c4.681,0.04,6.047-0.82,6.693-4.958    c0.753-4.818,1.077-9.699,1.808-14.519c0.295-1.946,1.176-3.813,1.793-5.709c0.458,0.034,0.917,0.067,1.383,0.101    c0.438,1.47,1.299,2.954,1.252,4.405C237.442,765.918,237.132,771.866,236.556,777.782z M177.977,701.533    c6.077,7.703,14.069,10.779,23.583,10.536c10.329-0.269,20.472-1.252,29.599-6.915c3.862-2.406,6.083-1.261,6.492,3.262    c0.37,4.049,0.387,8.181,0.092,12.236c-0.338,4.75-3.815,7.434-7.924,8.293c-8.544,1.788-17.227,2.929-25.87,4.244    c-1.553,0.238-3.187,0.035-4.779,0.035c-12.038,0.191-23.661-1.731-34.32-7.603c-14.034-7.737-21.918-20.007-24.932-35.459    c-2.638-13.519-2.352-27.021,2.361-40.11c5.894-16.38,17.875-26.411,34.064-31.928c10.642-3.62,21.616-3.593,32.553-2.599    c6.69,0.614,13.408,1.952,19.875,3.791c7.434,2.119,8.989,4.718,9.176,12.343c0.074,2.981,0.063,6.006-0.303,8.951    c-0.436,3.504-2.097,4.422-5.42,3.34c-1.603-0.518-3.152-1.23-4.687-1.934c-10.913-4.981-22.3-6.55-34.134-4.735    c-7.535,1.159-12.718,5.933-16.927,11.821C165.924,663.846,166.75,687.295,177.977,701.533z M256.897,766.525    c-0.165,4.66-0.544,9.322-0.989,13.967c-0.134,1.406-0.804,2.767-1.228,4.139c-0.346,0.045-0.69,0.079-1.036,0.123    c-0.484-1.371-1.266-2.727-1.4-4.138c-0.473-4.942-0.804-9.901-1.031-14.868c-0.191-4.15-0.72-7.928-5.866-9.098h17.415    C257.302,757.973,257.052,762.127,256.897,766.525z M295.947,779.267c-0.024,0.585-0.196,1.181-0.374,1.743    c-1.339,4.206-3.246,4.864-6.26,1.598c-2.748-2.969-4.995-6.433-7.264-9.802c-2.097-3.133-3.933-6.428-6.593-9.598    c0,3.688,0.163,7.389-0.045,11.071c-0.205,3.56-0.146,7.271-2.319,10.341c-0.385,0.017-0.767,0.033-1.153,0.056    c-0.542-2.626-1.479-5.245-1.541-7.882c-0.125-5.366,0.178-10.729,0.411-16.089c0.047-1.058,0.488-2.131,0.905-3.127    c0.903-2.176,2.611-2.644,4.254-1.129c2.104,1.924,4.11,4.07,5.71,6.421c3.12,4.6,5.935,9.401,9.232,14.693    c0.796-7.705-0.867-15.172,2.501-21.901c0.454-0.033,0.91-0.07,1.367-0.104c0.553,2.937,1.495,5.86,1.586,8.812    C296.515,769.331,296.136,774.301,295.947,779.267z M316.409,772.969c-1.603,0.686-3.419,0.882-5.122,1.294    c-1.757-0.4-3.434-0.658-4.998-1.209c-0.597-0.208-1.215-1.057-1.325-1.703c-0.077-0.429,0.624-1.261,1.153-1.486    c3.454-1.434,6.998-1.541,10.395,0.066C318.315,770.788,318.142,772.227,316.409,772.969z M331.672,771.361    c-4.472,0.448-5.377,1.451-5.737,5.981c-0.135,1.576-0.259,3.184-0.686,4.695c-0.281,1.003-1.113,1.845-1.698,2.761    c-0.315-0.078-0.629-0.157-0.943-0.234c-3.133-9.357-1.677-19.097-2.127-29.118c5.999,0.283,11.675,0.541,17.354,0.804    c-0.018,0.137-0.034,0.271-0.039,0.412c-2.852,0.696-5.72,1.338-8.543,2.125c-2.365,0.652-3.307,2.497-3.267,4.769    c0.035,2.147,0.939,3.97,3.188,4.527c3.724,0.927,7.49,1.681,11.349,2.524C337.507,770.855,334.583,771.073,331.672,771.361z     M347.026,731.19c-7.759,0-15.333,0.258-22.879-0.092c-4.897-0.229-4.881-0.63-7.221-6.5c-1.929,0.916-3.937,1.676-5.724,2.768    c-5.425,3.295-11.074,5.915-17.514,6.353c-19.264,1.306-35.349-10.779-39.616-29.982c-2.486-11.171-2.286-22.323,1.087-33.372    c6.687-21.913,29.811-32.215,50.523-22.386c4.012,1.9,7.902,4.038,12.29,6.297v-42.353h29.053V731.19z M369.555,784.345    c-0.912-0.176-2.069-0.05-2.683-0.574c-1.271-1.074-2.245-2.496-3.346-3.773c-1.36-1.563-2.53-3.386-4.145-4.633    c-2.997-2.311-5.781-1.091-6.618,2.637c-1.199,5.348-1.199,5.348-3.413,7.17c-3.296-10.06-1.644-19.895-2.204-30.196    c5.729,0.669,11.038,1.175,16.307,1.94c2.812,0.41,3.419,2.808,3.599,5.19c0.28,3.769,0.246,7.579,0.697,11.337    c0.331,2.833,1.248,5.594,1.822,8.411C369.729,782.646,369.571,783.506,369.555,784.345z M389.983,781.263    c1.495,0.36,3.147,0.129,4.724,0.079c1.09-0.034,2.191-0.394,3.26-0.275c0.759,0.09,1.462,0.719,2.194,1.108    c-0.574,0.691-1.019,1.691-1.756,1.994c-1.153,0.473-2.508,0.468-3.508,0.618c-7.176-0.663-13.563-2.125-16.881-9.197    c-2.621-5.584-1.249-12.181,3.644-15.904c4.471-3.391,9.701-4.609,15.233-3.923c1.174,0.135,2.198,1.439,3.302,2.204    c-1.316,0.359-2.61,0.826-3.948,1.044c-0.754,0.126-1.574-0.157-2.374-0.234c-6.016-0.586-10.732,2.99-11.785,8.923    C380.962,774.038,384.291,779.896,389.983,781.263z M441.546,731.358c-0.799-0.011-1.844-1.293-2.327-2.209    c-4.635-8.705-9.048-17.528-13.782-26.166c-1.609-2.945-3.79-5.622-5.995-8.176c-3.524-4.082-8.231-5.78-13.568-5.877    c-2.53-0.039-4.278,0.975-4.623,3.635c-0.302,2.365-0.596,4.745-0.629,7.123c-0.135,9.379-0.168,18.748-0.235,28.128    c0,1.078,0,2.158,0,3.441h-31.743V617.266c0.635-0.068,1.209-0.19,1.777-0.181c17.645,0.337,35.302,0.461,52.931,1.181    c5.79,0.231,11.662,1.587,17.263,3.205c10.379,3.015,15.203,10.942,17.003,21.076c2.114,11.876-1.259,21.828-10.491,29.734    c-1.812,1.54-3.531,3.246-5.017,5.095c-0.448,0.551-0.359,2.339,0.136,2.721c6.004,4.601,9.177,11.27,12.646,17.589    c5.787,10.562,11.055,21.414,16.526,32.147c0.214,0.417,0.305,0.884,0.551,1.627C461.66,731.46,451.601,731.504,441.546,731.358z     M536.621,585.326h-87.67c-0.274-6.608-0.521-13.067-0.82-19.529c-0.135-2.985-0.978-23.68-0.76-16.308    c-0.218-7.372-4.328-10.707-9.323-10.362v46.166h-86.623c0-1.373-0.033-2.644,0.006-3.904c0.462-14.187,1.113-26.955-0.843-41.014    c-1.048-3.396-2.452-5.163-3.307-5.309c-2.453-0.417-5.23,0.146-6.187,2.969c-0.797,2.317-1.281,4.847-1.349,7.299    c-0.299,11.967-0.406,23.938-0.585,35.909c-0.017,1.182,0,2.372,0,3.767h-85.1c0-1.185,0.013-2.349-0.004-3.508    c-0.191-13.754-0.292-27.519-0.693-41.273c-0.054-1.783-1.237-4.251-2.669-5.117c-2.882-1.714-5.777-0.022-6.357,3.413    c-0.521,3.133-0.753,6.342-0.792,9.52c-0.129,11.175-0.122,22.348-0.168,33.525c-0.004,1.08,0,2.166,0,3.55H155.84    c-0.06-1.199-0.133-2.341-0.17-3.481c-0.335-11.663-0.621-23.326-1.062-34.977c-0.05-1.315-0.979-2.599-1.499-3.897    c-1.417,0.806-3.552,1.289-4.107,2.486c-1.48,3.2-2.964,6.652-3.209,10.1c-0.613,8.743-0.553,17.533-0.755,26.304    c-0.027,1.175-0.003,2.346-0.003,3.689H60.305c-0.109-0.371-0.323-0.741-0.312-1.103c0.582-14.244,0.773-28.516,1.873-42.712    c1.507-19.406,9.219-36.332,22.273-50.805c2.795-3.1,5.499-6.277,8.108-9.269c-4.577-7.14-15.115-15.654-18.792-22.992    c-6.742-10.96-8.649-16.739-9.219-20.934l0,0c-0.138-0.496-0.256-1.002-0.352-1.515c-1.515-2.89-2.111-6.229-1.912-9.542    c-0.16-1.227-0.204-2.468-0.129-3.705c-0.028-0.073-0.05-0.14-0.088-0.215c-0.382-0.871-0.452-1.927-0.46-2.907    c-0.402-45.586-1.065-91.178-1.012-136.769c0.02-15.611,1.394-31.27,2.96-46.822c1.603-15.925,7.909-30.489,16.146-44    c20.975-34.399,51.328-56.073,90.55-65.348c2.989-0.706,5.935-1.696,8.773-2.868c2.574-1.068,3.479-3.232,2.458-5.906    c-0.742-1.946-1.64-3.842-2.595-5.697c-12.082-23.347,3.187-52.194,29.24-55.697c17-2.286,34.926,5.547,43.16,26.569    c3.241,8.276,3.441,16.208,0.062,24.379c-1.734,4.194-3.161,8.519-4.884,13.234c2.814,0.185,4.97,0.408,7.133,0.458    c28.625,0.658,57.248,1.246,85.874,1.943c21.94,0.534,43.876,1.097,65.813,1.841c48.539,1.645,84.773,24.981,111.146,64.509    c12.152,18.215,18.187,38.695,18.844,60.871c1.462,49.186,0.479,98.356-0.343,147.529c-0.152,8.958-0.844,17.944-1.917,26.845    c-1.344,11.178-6.535,21.087-11.961,30.719c-4.646,8.238-9.817,16.184-14.957,24.139c-1.619,2.51-1.462,4.388,0.303,6.676    c4.387,5.686,8.872,11.32,12.799,17.304c8.231,12.572,12.574,26.697,14.463,41.431c1.652,12.831,2.277,25.811,3.345,38.721    C536.733,584.178,536.654,584.662,536.621,585.326z"
         id="path7" /><path
         fill-rule="evenodd"
         clip-rule="evenodd"
         fill="#FFFFFF"
         d="M294.779,755.559c0.553,2.937,1.495,5.86,1.586,8.812    c0.15,4.961-0.229,9.931-0.418,14.896c-0.024,0.585-0.196,1.181-0.374,1.743c-1.339,4.206-3.246,4.864-6.26,1.598    c-2.748-2.969-4.995-6.433-7.264-9.802c-2.097-3.133-3.933-6.428-6.593-9.598c0,3.688,0.163,7.389-0.045,11.071    c-0.205,3.56-0.146,7.271-2.319,10.341c-0.385,0.017-0.767,0.033-1.153,0.056c-0.542-2.626-1.479-5.245-1.541-7.882    c-0.125-5.366,0.178-10.729,0.411-16.089c0.047-1.058,0.488-2.131,0.905-3.127c0.903-2.176,2.611-2.644,4.254-1.129    c2.104,1.924,4.11,4.07,5.71,6.421c3.12,4.6,5.935,9.401,9.232,14.693c0.796-7.705-0.867-15.172,2.501-21.901    C293.866,755.629,294.322,755.592,294.779,755.559z"
         id="path9" /><path
         fill-rule="evenodd"
         clip-rule="evenodd"
         fill="#FFFFFF"
         d="M349.351,785.171c-3.296-10.06-1.644-19.895-2.204-30.196    c5.729,0.669,11.038,1.175,16.307,1.94c2.812,0.41,3.419,2.808,3.599,5.19c0.28,3.769,0.246,7.579,0.697,11.337    c0.331,2.833,1.248,5.594,1.822,8.411c0.157,0.792,0,1.652-0.017,2.491c-0.912-0.176-2.069-0.05-2.683-0.574    c-1.271-1.074-2.245-2.496-3.346-3.773c-1.36-1.563-2.53-3.386-4.145-4.633c-2.997-2.311-5.781-1.091-6.618,2.637    C351.564,783.349,351.564,783.349,349.351,785.171z M355.225,758.619c-2.674,0.045-2.383,2.812-2.568,5.099    c-0.377,4.68,0.58,6.958,2.829,7.183c0.196,0.021,0.397,0.01,0.602,0c3.114-0.045,5.667-2.772,5.689-6.097    C361.793,761.509,359.229,758.708,355.225,758.619z"
         id="path11" /><path
         fill-rule="evenodd"
         clip-rule="evenodd"
         fill="#FFFFFF"
         d="M236.376,755.575c0.438,1.47,1.299,2.954,1.252,4.405    c-0.187,5.938-0.497,11.886-1.073,17.802c-0.284,2.885-2.193,5.039-5.103,5.601c-3.281,0.619-6.686,1.237-9.981,1.008    c-4.574-0.322-7.615-3.072-8.813-7.667c-1.566-5.998-1.434-12.031-0.418-18.071c0.164-0.99,0.798-1.9,1.379-3.223    c2.783,2.57,2.845,5.646,3.258,8.497c0.556,3.846,0.738,7.737,1.266,11.59c0.555,4.089,1.979,5.11,6.557,5.144    c4.681,0.04,6.047-0.82,6.693-4.958c0.753-4.818,1.077-9.699,1.808-14.519c0.295-1.946,1.176-3.813,1.793-5.709    C235.452,755.509,235.911,755.542,236.376,755.575z"
         id="path13" /><path
         fill-rule="evenodd"
         clip-rule="evenodd"
         fill="#FFFFFF"
         d="M322.607,784.564c-3.133-9.357-1.677-19.097-2.127-29.118    c5.999,0.283,11.675,0.541,17.354,0.804c-0.018,0.137-0.034,0.271-0.039,0.412c-2.852,0.696-5.72,1.338-8.543,2.125    c-2.365,0.652-3.307,2.497-3.267,4.769c0.035,2.147,0.939,3.97,3.188,4.527c3.724,0.927,7.49,1.681,11.349,2.524    c-3.016,0.248-5.939,0.466-8.851,0.754c-4.472,0.448-5.377,1.451-5.737,5.981c-0.135,1.576-0.259,3.184-0.686,4.695    c-0.281,1.003-1.113,1.845-1.698,2.761C323.235,784.721,322.922,784.642,322.607,784.564z"
         id="path15" /><path
         fill-rule="evenodd"
         clip-rule="evenodd"
         fill="#FFFFFF"
         d="M394.897,784.787c-7.176-0.663-13.563-2.125-16.881-9.197    c-2.621-5.584-1.249-12.181,3.644-15.904c4.471-3.391,9.701-4.609,15.233-3.923c1.174,0.135,2.198,1.439,3.302,2.204    c-1.316,0.359-2.61,0.826-3.948,1.044c-0.754,0.126-1.574-0.157-2.374-0.234c-6.016-0.586-10.732,2.99-11.785,8.923    c-1.126,6.339,2.203,12.197,7.896,13.563c1.495,0.36,3.147,0.129,4.724,0.079c1.09-0.034,2.191-0.394,3.26-0.275    c0.759,0.09,1.462,0.719,2.194,1.108c-0.574,0.691-1.019,1.691-1.756,1.994C397.252,784.642,395.897,784.637,394.897,784.787z"
         id="path17" /><path
         fill-rule="evenodd"
         clip-rule="evenodd"
         fill="#FFFFFF"
         d="M262.762,756.65c-5.46,1.322-5.71,5.477-5.865,9.875    c-0.165,4.66-0.544,9.322-0.989,13.967c-0.134,1.406-0.804,2.767-1.228,4.139c-0.346,0.045-0.69,0.079-1.036,0.123    c-0.484-1.371-1.266-2.727-1.4-4.138c-0.473-4.942-0.804-9.901-1.031-14.868c-0.191-4.15-0.72-7.928-5.866-9.098    C251.151,756.65,256.957,756.65,262.762,756.65z"
         id="path19" /><path
         fill-rule="evenodd"
         clip-rule="evenodd"
         fill="#FFFFFF"
         d="M311.287,774.263c-1.757-0.4-3.434-0.658-4.998-1.209    c-0.597-0.208-1.215-1.057-1.325-1.703c-0.077-0.429,0.624-1.261,1.153-1.486c3.454-1.434,6.998-1.541,10.395,0.066    c1.804,0.857,1.63,2.296-0.103,3.038C314.807,773.654,312.99,773.851,311.287,774.263z"
         id="path21" /><path
         clip-rule="evenodd"
         d="m 295.33462,442.21583 c -34.201,-0.709 -68.402,-1.761 -102.607,-1.94 -15.595,-0.078 -26.294,-7.744 -35.418,-18.989 -6.454,-7.954 -9.502,-17.283 -9.683,-27.411 -0.663,-36.896 -1.43,-73.787 -1.529,-110.681 -0.032,-12.208 1.232,-24.51 2.979,-36.611 2.582,-17.849 20.962,-37.539 43.762,-38.838 14.825,-0.843 29.668,-2.215 44.493,-2.147 53.16,0.229 106.316,0.942 159.472,1.579 5.268,0.062 10.536,0.736 15.79,1.297 8.811,0.938 15.041,6.455 20.991,12.283 2.833,2.787 5.291,5.961 7.893,8.976 5.647,6.515 7.627,14.236 7.66,22.684 0.191,44.678 0.574,89.355 0.529,134.036 -0.014,7.48 -0.625,15.378 -3.049,22.357 -5.19,14.961 -15.215,26.186 -31.191,29.918 -8.159,1.906 -16.802,2.29 -25.23,2.352 -31.619,0.264 -63.237,0.106 -94.854,0.106 -0.003,0.342 -0.008,0.684 -0.008,1.029 z m 69.019,-79.801 c 37.584,-0.192 62.877,-32.049 56.68,-67.916 -5.272,-30.554 -30.813,-46.906 -55.849,-47.192 -18.639,-0.208 -34.086,7.361 -46.109,21.452 -12.327,14.455 -17.071,31.15 -12.382,49.839 6.467,25.804 30.265,43.711 57.66,43.817 z m -181.486,-54.488 c -0.275,0.081 -0.551,0.165 -0.827,0.249 1.223,4.026 1.63,8.582 3.84,11.964 4.327,6.644 10.472,11.704 17.634,15.304 9.458,4.751 18.83,3.003 27.999,-0.869 14.374,-6.083 21.03,-21.154 16.477,-36.05 -5.566,-18.219 -26.614,-26.642 -41.669,-20.803 -15.669,6.079 -23.547,15.543 -23.454,30.205 z"
         id="path23"
         inkscape:connector-curvature="0"
         style="fill-rule:evenodd" /><path
         fill-rule="evenodd"
         clip-rule="evenodd"
         d="M221.26,95.317c-0.531,6.584-6.436,10.102-12.197,7.147    c-0.581-0.301-1.383-0.866-1.439-1.383c-0.41-3.683-0.742-7.383-0.871-11.081c-0.017-0.57,1.198-1.738,1.744-1.682    c3.475,0.352,7.09,0.515,10.286,1.722C220.086,90.532,220.462,93.484,221.26,95.317z"
         id="path25" /><path
         fill-rule="evenodd"
         clip-rule="evenodd"
         d="M400.699,652.646c0-3.087-0.141-6.185,0.04-9.262    c0.209-3.672,1.418-4.914,5.033-4.785c4.239,0.151,8.546,0.36,12.685,1.249c4.577,0.979,7.439,4.278,8.019,8.974    c0.361,2.914,0.333,5.967-0.089,8.873c-0.625,4.298-3.29,7.531-7.524,8.341c-4.824,0.916-9.816,1.096-14.744,1.254    c-2.495,0.084-3.26-2.104-3.352-4.19c-0.135-3.48-0.034-6.967-0.034-10.453C400.723,652.646,400.711,652.646,400.699,652.646z"
         id="path27" /><path
         fill-rule="evenodd"
         clip-rule="evenodd"
         d="M283.236,688.262c-0.019-5.488,1.51-12.032,5.18-17.937    c6.374-10.262,17.011-10.566,24.07-0.782c7.118,9.874,7.106,29.045-0.022,38.856c-6.937,9.542-17.009,9.306-24.109-0.619    C284.49,702.382,283.191,696.224,283.236,688.262z"
         id="path29" /><path
         fill-rule="evenodd"
         clip-rule="evenodd"
         d="M355.225,758.619c4.005,0.089,6.568,2.89,6.552,6.185    c-0.022,3.324-2.575,6.052-5.689,6.097c-0.204,0.01-0.405,0.021-0.602,0c-2.249-0.225-3.206-2.503-2.829-7.183    C352.842,761.431,352.551,758.664,355.225,758.619z"
         id="path31" /><path
         fill-rule="evenodd"
         clip-rule="evenodd"
         d="M364.521,321.797c-9.525-0.195-15.564-4.376-17.071-11.159    c-1.935-8.784,4.724-17.412,14.176-18.001c6.181-0.385,11.824,1.202,15.232,6.894c3.401,5.698,2.509,11.614-0.641,17.036    C373.461,321.309,368.345,321.417,364.521,321.797z"
         id="path33" /><rect
         x="199.208"
         y="745.292"
         fill-rule="evenodd"
         clip-rule="evenodd"
         width="214.483"
         height="47.764"
         id="rect35" /><path
         fill-rule="evenodd"
         clip-rule="evenodd"
         fill="#FFFFFF"
         d="M242.913,356.485"
         id="path39" /></g><circle
       cx="214.139"
       cy="94.78"
       r="9.249"
       id="circle43" /><text
       transform="matrix(1 0 0 1 210.1006 787.9072)"
       fill="#FFFFFF"
       font-family="'Tahoma-Bold'"
       font-size="42.6855"
       id="text45">UTN-FRC</text>
<path
       sodipodi:type="arc"
       style="fill:#0000ff;fill-opacity:0;stroke:#000000;stroke-width:1;stroke-linejoin:miter;stroke-miterlimit:4;stroke-opacity:0;stroke-dasharray:none"
       id="path3032"
       sodipodi:cx="214.56863"
       sodipodi:cy="310.11087"
       sodipodi:rx="32.634769"
       sodipodi:ry="34.534573"
       d="m 247.2034,310.11087 a 32.634769,34.534573 0 1 1 -65.26954,0 32.634769,34.534573 0 1 1 65.26954,0 z"
       transform="translate(-9.4696599e-6,0)" /><path
       sodipodi:type="arc"
       style="fill:#0000ff;fill-opacity:0;stroke:#000000;stroke-width:1;stroke-linejoin:miter;stroke-miterlimit:4;stroke-opacity:0;stroke-dasharray:none"
       id="path3042"
       sodipodi:cx="213.938"
       sodipodi:cy="310.11087"
       sodipodi:rx="32.004147"
       sodipodi:ry="34.534573"
       d="m 245.94215,310.11087 a 32.004147,34.534573 0 1 1 -64.00829,0 32.004147,34.534573 0 1 1 64.00829,0 z"
       transform="matrix(1.02951,0,0,0.97713116,-5.3673861,6.3035985)" /><path
       sodipodi:type="arc"
       style="fill:#0000ff;fill-opacity:0;stroke:#000000;stroke-width:1;stroke-linejoin:miter;stroke-miterlimit:4;stroke-opacity:0;stroke-dasharray:none"
       id="path3046"
       sodipodi:cx="213.6227"
       sodipodi:cy="308.37665"
       sodipodi:rx="31.688837"
       sodipodi:ry="32.800365"
       d="m 245.31153,308.37665 a 31.688837,32.800365 0 1 1 -63.37767,0 31.688837,32.800365 0 1 1 63.37767,0 z"
       transform="matrix(1.0442045,0,0,1.028287,-8.0241985,-7.7771172)" /></g></svg>